<?xml version="1.0"?>
<svg xmlns="http://www.w3.org/2000/svg" viewBox="0 0 64 64">
    <path d="M 7 4 C 5.346 4 4 5.346 4 7 L 4 53 C 4 56.859 7.141 60 11 60 L 53 60 L 55 60 C 58.859 60 62 56.859 62 53 L 62 28 C 62 25.794 60.206 24 58 24 L 50 24 L 50 7 C 50 5.346 48.654 4 47 4 L 7 4 z M 7 6 L 47 6 C 47.552 6 48 6.448 48 7 L 48 53 C 48 54.997 48.754812 56.749 50.007812 58 L 11 58 C 8.243 58 6 55.757 6 53 L 6 50 L 37 50 C 37.553 50 38 49.553 38 49 C 38 48.447 37.553 48 37 48 L 6 48 L 6 7 C 6 6.448 6.448 6 7 6 z M 13 12 C 12.447 12 12 12.447 12 13 C 12 13.553 12.447 14 13 14 L 29 14 C 29.553 14 30 13.553 30 13 C 30 12.447 29.553 12 29 12 L 13 12 z M 33 12 C 32.447 12 32 12.447 32 13 C 32 13.553 32.447 14 33 14 L 39 14 C 39.553 14 40 13.553 40 13 C 40 12.447 39.553 12 39 12 L 33 12 z M 13 16 C 12.447 16 12 16.447 12 17 C 12 17.553 12.447 18 13 18 L 23 18 C 23.553 18 24 17.553 24 17 C 24 16.447 23.553 16 23 16 L 13 16 z M 27 16 C 26.447 16 26 16.447 26 17 C 26 17.553 26.447 18 27 18 L 39 18 C 39.553 18 40 17.553 40 17 C 40 16.447 39.553 16 39 16 L 27 16 z M 13 24 C 12.447 24 12 24.447 12 25 C 12 25.553 12.447 26 13 26 L 23 26 C 23.553 26 24 25.553 24 25 C 24 24.447 23.553 24 23 24 L 13 24 z M 29 24 C 28.447 24 28 24.447 28 25 C 28 25.553 28.447 26 29 26 L 39 26 C 39.553 26 40 25.553 40 25 C 40 24.447 39.553 24 39 24 L 29 24 z M 50 26 L 54.556641 26 C 54.212641 26.591 54 27.268 54 28 L 54 45 C 54 45.553 54.447 46 55 46 C 55.553 46 56 45.553 56 45 L 56 28 C 56 26.897 56.897 26 58 26 C 59.103 26 60 26.897 60 28 L 60 53 C 60 55.757 57.757 58 55 58 C 52.103 58 50 55.897 50 53 L 50 26 z M 13 28 C 12.447 28 12 28.447 12 29 C 12 29.553 12.447 30 13 30 L 23 30 C 23.553 30 24 29.553 24 29 C 24 28.447 23.553 28 23 28 L 13 28 z M 29 28 C 28.447 28 28 28.447 28 29 C 28 29.553 28.447 30 29 30 L 39 30 C 39.553 30 40 29.553 40 29 C 40 28.447 39.553 28 39 28 L 29 28 z M 13 32 C 12.447 32 12 32.447 12 33 C 12 33.553 12.447 34 13 34 L 23 34 C 23.553 34 24 33.553 24 33 C 24 32.447 23.553 32 23 32 L 13 32 z M 29 32 C 28.447 32 28 32.447 28 33 C 28 33.553 28.447 34 29 34 L 39 34 C 39.553 34 40 33.553 40 33 C 40 32.447 39.553 32 39 32 L 29 32 z M 13 36 C 12.447 36 12 36.447 12 37 C 12 37.553 12.447 38 13 38 L 23 38 C 23.553 38 24 37.553 24 37 C 24 36.447 23.553 36 23 36 L 13 36 z M 29 36 C 28.447 36 28 36.447 28 37 C 28 37.553 28.447 38 29 38 L 39 38 C 39.553 38 40 37.553 40 37 C 40 36.447 39.553 36 39 36 L 29 36 z M 13 40 C 12.447 40 12 40.447 12 41 C 12 41.553 12.447 42 13 42 L 23 42 C 23.553 42 24 41.553 24 41 C 24 40.447 23.553 40 23 40 L 13 40 z M 41 48 C 40.447 48 40 48.447 40 49 C 40 49.553 40.447 50 41 50 L 45 50 C 45.553 50 46 49.553 46 49 C 46 48.447 45.553 48 45 48 L 41 48 z M 10 52 C 9.447 52 9 52.447 9 53 L 9 55 C 9 55.553 9.447 56 10 56 C 10.553 56 11 55.553 11 55 L 11 53 C 11 52.447 10.553 52 10 52 z M 15 52 C 14.447 52 14 52.447 14 53 L 14 55 C 14 55.553 14.447 56 15 56 C 15.553 56 16 55.553 16 55 L 16 53 C 16 52.447 15.553 52 15 52 z M 20 52 C 19.447 52 19 52.447 19 53 L 19 55 C 19 55.553 19.447 56 20 56 C 20.553 56 21 55.553 21 55 L 21 53 C 21 52.447 20.553 52 20 52 z M 25 52 C 24.447 52 24 52.447 24 53 L 24 55 C 24 55.553 24.447 56 25 56 C 25.553 56 26 55.553 26 55 L 26 53 C 26 52.447 25.553 52 25 52 z M 30 52 C 29.447 52 29 52.447 29 53 L 29 55 C 29 55.553 29.447 56 30 56 C 30.553 56 31 55.553 31 55 L 31 53 C 31 52.447 30.553 52 30 52 z M 35 52 C 34.447 52 34 52.447 34 53 L 34 55 C 34 55.553 34.447 56 35 56 C 35.553 56 36 55.553 36 55 L 36 53 C 36 52.447 35.553 52 35 52 z M 40 52 C 39.447 52 39 52.447 39 53 L 39 55 C 39 55.553 39.447 56 40 56 C 40.553 56 41 55.553 41 55 L 41 53 C 41 52.447 40.553 52 40 52 z M 45 52 C 44.447 52 44 52.447 44 53 L 44 55 C 44 55.553 44.447 56 45 56 C 45.553 56 46 55.553 46 55 L 46 53 C 46 52.447 45.553 52 45 52 z"/>
</svg>
